<svg height="512" viewBox="0 0 48 60" width="512" xmlns="http://www.w3.org/2000/svg"><g id="Page-1" fill="none" fill-rule="evenodd"><g id="034---Boy-with-Glasses" fill-rule="nonzero" transform="translate(0 -1)"><path id="Shape" d="m42 18.73v14.27c-.0011972.668145-.0379157 1.3357538-.11 2-1.0530866 9.359428-9.1375886 16.3282252-18.55 15.99-1.4701803-.0516089-2.9281465-.2867648-4.34-.7-6.9091645-2.1360719-11.93054642-8.1155835-12.84-15.29-.10868877-.8054032-.16214693-1.617299-.16-2.43v-13.84c-.02795781-1.7623079.75095429-3.4407775 2.11481654-4.5571962s3.16313346-1.5483763 4.88518346-1.1728038c2.94.59 4.5 2.22 6.3 3.46.56 3.25 2.07 6.57 5.82 7.24 7.75 1.39 11.4-2.55 11.4-2.55s-4.11-.92-1.37-5.56c.5105975-.8534632.92959-1.758487 1.25-2.7 1.5199942.0281427 2.9649177.6659269 4.01 1.77 1.0438024 1.0952948 1.614914 2.5571968 1.59 4.07z" fill="#ffe0b2"/><path id="Shape" d="m40.41 14.66c-1.0450823-1.1040731-2.4900058-1.7418573-4.01-1.77-.081.25-.2.5-.3.753.4781763.2818562.9184034.6236203 1.31 1.017 1.0438024 1.0952948 1.614914 2.5571968 1.59 4.07v14.27c-.0011972.668145-.0379157 1.3357538-.11 2-.8143349 7.2322167-5.8996536 13.2643751-12.89 15.29-1.1640973.3342719-2.3593047.548719-3.567.64.3.026.6.05.907.06 9.4124114.3382252 17.4969134-6.630572 18.55-15.99.0720843-.6642462.1088028-1.331855.11-2v-14.27c.024914-1.5128032-.5461976-2.9747052-1.59-4.07z" fill="#dfc49c"/><path id="Shape" d="m29 50.29v2.71c0 1.6568542-1.3431458 3-3 3h-4c-1.6548028-.0049422-2.9950578-1.3451972-3-3v-2.71c1.4118535.4132352 2.8698197.6483911 4.34.7 1.9119397.0703596 3.8228085-.1659669 5.66-.7z" fill="#ffe0b2"/><path id="Shape" d="m40 60h-32c0-3.8659932 3.1340068-7 7-7h4c.0049422 1.6548028 1.3451972 2.9950578 3 3h4c1.6568542 0 3-1.3431458 3-3h4c3.8659932 0 7 3.1340068 7 7z" fill="#02a9f4"/><path id="Shape" d="m37.95 55.05c-1.3102237-1.3166613-3.0925123-2.0547808-4.95-2.05l-3-.0000231c3.8659932.0000231 7 3.1340299 7 7.0000231h3.0000231c.0047577-1.8574877-.7333618-3.6397763-2.0500231-4.95z" fill="#0377bc"/><path id="Shape" d="m6.16 35h-1.66c-1.93299662 0-3.5-1.5670034-3.5-3.5-.00138363-.9133629.35802103-1.7903103 1-2.44l.03-.03c.65185581-.6607299 1.54184238-1.0318579 2.47-1.03h1.5v4.57c-.00214693.812701.05131123 1.6245968.16 2.43z" fill="#ffe0b2"/><path id="Shape" d="m47 31.5c0 1.9329966-1.5670034 3.5-3.5 3.5h-1.61c.0720843-.6642462.1088028-1.331855.11-2v-5h1.5c.9281576-.0018579 1.8181442.3692701 2.47 1.03l.03.03c.641979.6496897 1.0013836 1.5266371 1 2.44z" fill="#ffe0b2"/><path id="Shape" d="m36.52 21.15s-3.65 3.94-11.4 2.55c-3.75-.67-5.26-3.99-5.82-7.24-1.8-1.24-3.36-2.87-6.3-3.46-1.72205-.3755725-3.52132121.0563851-4.88518346 1.1728038s-2.14277435 2.7948883-2.11481654 4.5571962v9.27h-1.5c-.92815762-.0018579-1.81814419.3692701-2.47 1.03l-.03.03v-11.2c0-7.59 5.5-11.64 11-13.79 6.0455692-2.35707453 12.688137-2.71111113 18.95-1.01.02.01.04.01.06.02 4.57 1.47 5.9 5.43 4.39 9.81-.32041.941513-.7394025 1.8465368-1.25 2.7-2.74 4.64 1.37 5.56 1.37 5.56z" fill="#a0522d"/><path id="Shape" d="m35.15 15.59c.5105975-.8534632.92959-1.758487 1.25-2.7 1.51-4.38.18-8.34-4.39-9.81-.02-.01-.04-.01-.06-.02-3.1255995-.84689158-6.3665139-1.18853797-9.6-1.012 2.2305198.09361383 4.4439061.43299974 6.6 1.012.02.01.04.01.06.02 4.57 1.47 5.9 5.43 4.39 9.81-.32041.941513-.7394025 1.8465368-1.25 2.7-2.74 4.64 1.37 5.56 1.37 5.56-1.8595413 1.6609628-4.2301264 2.6377709-6.72 2.769 6.6.59 9.723-2.769 9.723-2.769s-4.113-.92-1.373-5.56z" fill="#783e22"/><path id="Shape" d="m46 17.86v11.2l-.03-.03c-.6518558-.6607299-1.5418424-1.0318579-2.47-1.03h-1.5v-9.27c.024914-1.5128032-.5461976-2.9747052-1.59-4.07-1.0450823-1.1040731-2.4900058-1.7418573-4.01-1.77 1.51-4.38.18-8.34-4.39-9.81 1.01.28 2.01.61 2.99.99 5.5 2.15 11 6.2 11 13.79z" fill="#a0522d"/><path id="Shape" d="m35 4.07c-.98-.38-1.98-.71-2.99-.99 1.6738539.4677632 3.116726 1.53576623 4.053 3 3.856 2.402 6.937 6.1 6.937 11.78v10.14h.5c.9281576-.0018579 1.8181442.3692701 2.47 1.03l.03.03v-11.2c0-7.59-5.5-11.64-11-13.79z" fill="#783e22"/><path id="Shape" d="m24 46c6 0 6-4 6-4h-12s0 4 6 4z" fill="#ef314c"/><path id="Shape" d="m19.068 36h-6.136c-.959338-.0367045-1.7716364-.7193151-1.973-1.658l-.879-3.428c-.20461639-.6538409-.10004185-1.3652946.2840674-1.9326004.3841093-.5673058 1.0058608-.9285912 1.6889326-.9813996h7.894c.6830718.0528084 1.3048233.4140938 1.6889326.9813996s.4886838 1.2787595.2840674 1.9326004l-.879 3.428c-.2013636.9386849-1.013662 1.6212955-1.973 1.658z" fill="#607d8b"/><path id="Shape" d="m19.947 28h-3c.6830718.0528084 1.3048233.4140938 1.6889326.9813996s.4886838 1.2787595.2840674 1.9326004l-.879 3.428c-.2013636.9386849-1.013662 1.6212955-1.973 1.658h3c.959338-.0367045 1.7716364-.7193151 1.973-1.658l.879-3.428c.2046164-.6538409.1000419-1.3652946-.2840674-1.9326004s-1.0058608-.9285912-1.6889326-.9813996z" fill="#37474f"/><path id="Shape" d="m35.068 36h-6.136c-.959338-.0367045-1.7716364-.7193151-1.973-1.658l-.879-3.428c-.2046164-.6538409-.1000419-1.3652946.2840674-1.9326004s1.0058608-.9285912 1.6889326-.9813996h7.894c.6830718.0528084 1.3048233.4140938 1.6889326.9813996s.4886838 1.2787595.2840674 1.9326004l-.879 3.428c-.2013636.9386849-1.013662 1.6212955-1.973 1.658z" fill="#607d8b"/><path id="Shape" d="m35.947 28h-3c.6830718.0528084 1.3048233.4140938 1.6889326.9813996s.4886838 1.2787595.2840674 1.9326004l-.879 3.428c-.2013636.9386849-1.013662 1.6212955-1.973 1.658h3c.959338-.0367045 1.7716364-.7193151 1.973-1.658l.879-3.428c.2046164-.6538409.1000419-1.3652946-.2840674-1.9326004s-1.0058608-.9285912-1.6889326-.9813996z" fill="#37474f"/><g fill="#000"><path id="Shape" d="m47 28.71v-10.847c0-6.656-4.024-11.748-11.636-14.724-1.0093409-.39307273-2.0383899-.73353005-3.083-1.02l-.032-.012c-.007 0-.014 0-.021 0-6.4708646-1.77973845-13.3439194-1.41770331-19.592 1.032-7.612 2.976-11.636 8.068-11.636 14.724v10.848c-.64398852.7870944-.99713812 1.7720287-1 2.789.00275556 2.4841391 2.01586091 4.4972444 4.5 4.5h.819c1.23501377 6.9080212 6.0730453 12.6265965 12.681 14.989v1.011h-3c-4.4162219.0049599-7.99504012 3.5837781-8 8 0 .5522847.44771525 1 1 1h32c.5522847 0 1-.4477153 1-1 0-4.418278-3.581722-8-8-8h-3v-.981c6.7241427-2.2263354 11.641556-8.0220374 12.743-15.019h.757c2.4841391-.0027556 4.4972444-2.0158609 4.5-4.5-.0021411-1.0174008-.3553613-2.0028851-1-2.79zm-2-10.847v9.41c-.4806925-.1761709-.9880612-.268512-1.5-.273h-.5v-8.27c.0406115-3.2093495-2.1734348-6.0079942-5.306-6.707.472536-1.7563408.3999958-3.61483419-.208-5.329-.066-.171-.148-.331-.226-.5 5.14 2.712 7.74 6.624 7.74 11.669zm-6.711 10.314c-.5551509-.7351928-1.4207752-1.1702227-2.342-1.177h-7.894c-.9212248.0067773-1.7868491.4418072-2.342 1.177-.2340373.314597-.4107448.668012-.522 1.044-.7758402-.2309785-1.6021598-.2309785-2.378 0-.1112552-.375988-.2879627-.729403-.522-1.044-.5551509-.7351928-1.4207752-1.1702227-2.342-1.177h-7.894c-.9212248.0067773-1.7868491.4418072-2.342 1.177-.60795155.8057925-.83501124 1.8363223-.622 2.823h-2.089v-12.27c-.02220455-1.2485987.44429145-2.4564645 1.3-3.366 1.14699316-1.2290001 2.8606012-1.7560298 4.5-1.384 1.7593202.4086253 3.3903581 1.2457861 4.748 2.437.275.208.55.406.826.606.668 3.446 2.4 6.917 6.561 7.664 1.1247835.2053619 2.2656264.3101093 3.409.313 5.892 0 8.767-3.019 8.906-3.17.2418826-.2611691.3266936-.6312325.2226875-.9716722-.1040061-.3404398-.3811474-.5999248-.7276875-.6813278-.6030764-.1545186-1.1146435-.5530482-1.412-1.1-.3-.7-.062-1.731.677-2.982.4031331-.686786.7557317-1.4020097 1.055-2.14 2.3145099.3952547 3.9893428 2.4276122 3.935 4.775v12.27h-2.089c.2130112-.9866777-.0140484-2.0172075-.622-2.823zm-11 1.226c.1780154-.2440102.4590692-.3917389.761-.4h7.894c.3019308.0082611.5829846.1559898.761.4.2704786.3610398.3600723.8263367.243 1.262l-.879 3.429c-.0913889.4926705-.500728.8635317-1 .906h-6.137c-.499272-.0424683-.9086111-.4133295-1-.906l-.879-3.429c-.119181-.4359807-.03103-.902554.239-1.265zm-6.341 1.262-.879 3.429c-.0913889.4926705-.500728.8635317-1 .906h-6.137c-.499272-.0424683-.9086111-.4133295-1-.906l-.879-3.429c-.1170723-.4356633-.0274786-.9009602.243-1.262.1780154-.2440102.4590692-.3917389.761-.4h7.894c.3019308.0082611.5829846.1559898.761.4.2690957.3617068.3572036.8269458.239 1.262zm-7.583-25.665c5.8471797-2.29246691 12.2791171-2.63169153 18.335-.967 1.7659526.44495635 3.2184844 1.69697277 3.919 3.378.8 2.085.315 4.881-1.332 7.671-1.1 1.856-1.36 3.472-.786 4.8.2556109.5783566.6570485 1.080412 1.165 1.457-1.509.955-4.57 2.24-9.374 1.377-6.71-1.2-5.132-12.9-5.115-13.014.0781483-.5467619-.3017381-1.05335171-.8485-1.1315s-1.0533517.3017381-1.1315.8485c-.2020547 1.6133658-.2549451 3.2419236-.158 4.865-1.4187791-1.1147696-3.0741432-1.8895991-4.839-2.265-2.2993976-.508073-4.69679397.227164-6.316 1.937-1.22747519 1.2841541-1.90369178 2.9976669-1.884 4.774v8.27h-.5c-.51194814.004389-1.01933364.0967331-1.5.273v-9.41c0-5.845 3.487-10.173 10.365-12.863zm-8.865 29c-1.38071187 0-2.5-1.1192881-2.5-2.5.00872977-1.3770797 1.12292032-2.4912702 2.5-2.5h.5v3.57c0 .482.036.956.071 1.43zm32.743 21.757c.8841017.8788334 1.4696844 2.0132687 1.674 3.243h-29.834c.49183282-2.8850396 2.9903399-4.996335 5.917-5h3.142c.4545933 1.7606851 2.0395884 2.9931852 3.858 3h4c1.8184116-.0068148 3.4034067-1.2393149 3.858-3h3.142c1.5922272-.0045083 3.1200824.6281671 4.243 1.757zm-9.243-2.757c0 1.1045695-.8954305 2-2 2h-4c-1.1045695 0-2-.8954305-2-2v-1.451c1.0857969.2481231 2.1921334.3957462 3.305.441.2313333.0066667.463.01.695.01 1.3448702-.0038747 2.6855946-.1493433 4-.434zm7.807-7.771c-3.3191424 3.2195079-7.8113754 4.9402297-12.432 4.762-8.888-.319-16.129-7.901-16.354-16.991h2.562l.408 1.591c.3151304 1.3804235 1.5255499 2.3718892 2.941 2.409h6.136c1.4154501-.0371108 2.6258696-1.0285765 2.941-2.409l.819-3.194c.7025962-.4960643 1.6414038-.4960643 2.344 0l.819 3.194c.3151304 1.3804235 1.5255499 2.3718892 2.941 2.409h6.136c1.4154501-.0371108 2.6258696-1.0285765 2.941-2.409l.408-1.591h2.583c.0161197 4.6153568-1.8608642 9.0354676-5.193 12.229zm7.693-11.229h-.55c.018-.333.05-.664.05-1v-4h.5c1.3770797.0087298 2.4912702 1.1229203 2.5 2.5 0 .6630412-.2633921 1.298926-.732233 1.767767-.468841.4688409-1.1047258.732233-1.767767.732233z"/><path id="Shape" d="m23 39h2c.5522847 0 1-.4477153 1-1s-.4477153-1-1-1h-2c-.5522847 0-1 .4477153-1 1s.4477153 1 1 1z"/><path id="Shape" d="m30 41h-12c-.5522847 0-1 .4477153-1 1 0 .05.08 5 7 5s7-4.95 7-5c0-.5522847-.4477153-1-1-1zm-6 4c-3.08 0-4.263-1.123-4.718-2h9.434c-.456.88-1.64 2-4.716 2z"/><path id="Shape" d="m19 22h-6c-.5522847 0-1 .4477153-1 1s.4477153 1 1 1h6c.5522847 0 1-.4477153 1-1s-.4477153-1-1-1z"/></g></g></g></svg>